<svg width="51" height="42" viewBox="0 0 51 42" fill="none" xmlns="http://www.w3.org/2000/svg">
<path d="M1 26V35.5C1 38.2614 3.23858 40.5 6 40.5H16" stroke="#B7B7B7" stroke-width="2" stroke-linecap="round"/>
<path d="M35 41H45C47.7614 41 50 38.7614 50 36V33.5V26" stroke="#B7B7B7" stroke-width="2" stroke-linecap="round"/>
<path d="M16 1L6 1C3.23858 1 1 3.23858 1 6L1 16" stroke="#B7B7B7" stroke-width="2" stroke-linecap="round"/>
<path d="M50 15.5V6C50 3.23858 47.7614 1 45 1L35 1" stroke="#B7B7B7" stroke-width="2" stroke-linecap="round"/>
<path d="M10 8.5L10 33.5" stroke="#B7B7B7" stroke-width="2" stroke-linecap="round"/>
<path d="M22 8.5V33.5" stroke="#B7B7B7" stroke-width="2" stroke-linecap="round"/>
<path d="M35 8.5V33.5" stroke="#B7B7B7" stroke-width="2" stroke-linecap="round"/>
<path d="M41 8.5V33.5" stroke="#B7B7B7" stroke-width="2" stroke-linecap="round"/>
<path d="M16 9V33" stroke="#B7B7B7" stroke-width="3" stroke-linecap="round"/>
</svg>
