<svg width="27" height="42" viewBox="0 0 27 42" fill="none" xmlns="http://www.w3.org/2000/svg">
<path d="M19.5 1L6 1C3.23858 1 1 3.23858 1 6L1 35.5C1 38.2614 3.23858 40.5 6 40.5H19.5" stroke="#F73030" stroke-width="2" stroke-linecap="round"/>
<path d="M10 20C9.44772 20 9 20.4477 9 21C9 21.5523 9.44772 22 10 22V20ZM26.7071 21.7071C27.0976 21.3166 27.0976 20.6834 26.7071 20.2929L20.3431 13.9289C19.9526 13.5384 19.3195 13.5384 18.9289 13.9289C18.5384 14.3195 18.5384 14.9526 18.9289 15.3431L24.5858 21L18.9289 26.6569C18.5384 27.0474 18.5384 27.6805 18.9289 28.0711C19.3195 28.4616 19.9526 28.4616 20.3431 28.0711L26.7071 21.7071ZM10 21V22H26V21V20H10V21Z" fill="#F73030"/>
</svg>
