<svg width="30" height="28" viewBox="0 0 30 28" fill="none" xmlns="http://www.w3.org/2000/svg">
<path d="M14.6102 0.463647C14.7599 0.00299203 15.4116 0.00299215 15.5612 0.463648L18.5849 9.76958C18.6519 9.9756 18.8438 10.1151 19.0605 10.1151L28.8453 10.1151C29.3297 10.1151 29.531 10.7349 29.1392 11.0196L21.2231 16.771C21.0478 16.8983 20.9745 17.124 21.0414 17.33L24.0651 26.6359C24.2148 27.0966 23.6876 27.4796 23.2957 27.1949L15.3796 21.4436C15.2044 21.3162 14.9671 21.3162 14.7918 21.4436L6.87572 27.1949C6.48386 27.4796 5.95662 27.0966 6.1063 26.6359L9.12998 17.33C9.19692 17.124 9.12359 16.8983 8.94834 16.771L1.03224 11.0196C0.640383 10.7349 0.841771 10.1151 1.32613 10.1151L11.111 10.1151C11.3276 10.1151 11.5196 9.9756 11.5865 9.76959L14.6102 0.463647Z" fill="#FFCD18"/>
</svg>
